<svg width="192" height="26" viewBox="0 0 192 26" fill="none" xmlns="http://www.w3.org/2000/svg">
<path d="M12.6561 2.63203V4.48804H2.80006V12.84H11.1201V14.696H2.80006V25H0.560059V2.63203H12.6561Z" fill="black"/>
<path d="M17.1413 4.23203C16.6933 4.23203 16.3093 4.07203 15.9893 3.75204C15.6693 3.43204 15.5093 3.03737 15.5093 2.56804C15.5093 2.0987 15.6693 1.7147 15.9893 1.41603C16.3093 1.09604 16.6933 0.936035 17.1413 0.936035C17.5893 0.936035 17.9733 1.09604 18.2933 1.41603C18.6133 1.7147 18.7733 2.0987 18.7733 2.56804C18.7733 3.03737 18.6133 3.43204 18.2933 3.75204C17.9733 4.07203 17.5893 4.23203 17.1413 4.23203ZM18.2613 7.52804V25H16.0213V7.52804H18.2613Z" fill="black"/>
<path d="M31.2058 7.20803C33.2965 7.20803 35.0031 7.8587 36.3258 9.16004C37.6485 10.44 38.3098 12.3067 38.3098 14.76V25H36.1018V15.016C36.1018 13.1174 35.6218 11.6667 34.6618 10.664C33.7231 9.66137 32.4325 9.16004 30.7898 9.16004C29.1045 9.16004 27.7605 9.69337 26.7578 10.76C25.7551 11.8267 25.2538 13.3947 25.2538 15.464V25H23.0138V7.52804H25.2538V10.504C25.8085 9.43737 26.6085 8.6267 27.6538 8.07203C28.6991 7.49603 29.8831 7.20803 31.2058 7.20803Z" fill="black"/>
<path d="M41.9198 16.232C41.9198 14.44 42.2825 12.872 43.0078 11.528C43.7331 10.1627 44.7251 9.11737 45.9838 8.39203C47.2638 7.64537 48.7038 7.27204 50.3038 7.27204C51.8398 7.27204 53.2265 7.64537 54.4638 8.39203C55.7011 9.1387 56.6078 10.1094 57.1838 11.304V1.32004H59.4238V25H57.1838V21.096C56.6505 22.312 55.7758 23.3147 54.5598 24.104C53.3438 24.872 51.9145 25.256 50.2718 25.256C48.6718 25.256 47.2318 24.8827 45.9518 24.136C44.6931 23.3894 43.7011 22.3334 42.9758 20.968C42.2718 19.6027 41.9198 18.024 41.9198 16.232ZM57.1838 16.264C57.1838 14.856 56.8958 13.6187 56.3198 12.552C55.7438 11.4854 54.9545 10.664 53.9518 10.088C52.9705 9.51204 51.8825 9.22404 50.6878 9.22404C49.4505 9.22404 48.3411 9.50137 47.3598 10.056C46.3785 10.6107 45.5998 11.4214 45.0238 12.488C44.4691 13.5334 44.1918 14.7814 44.1918 16.232C44.1918 17.6614 44.4691 18.92 45.0238 20.008C45.5998 21.0747 46.3785 21.896 47.3598 22.472C48.3411 23.0267 49.4505 23.304 50.6878 23.304C51.8825 23.304 52.9705 23.016 53.9518 22.44C54.9545 21.864 55.7438 21.0427 56.3198 19.976C56.8958 18.9094 57.1838 17.672 57.1838 16.264Z" fill="black"/>
<path d="M69.0176 2.53604V15.976C69.0176 17.32 69.3482 18.3547 70.0096 19.08C70.6709 19.8054 71.6416 20.168 72.9216 20.168C74.2016 20.168 75.1829 19.8054 75.8656 19.08C76.5482 18.3547 76.8896 17.32 76.8896 15.976V2.53604H82.3616V15.944C82.3616 17.9494 81.9349 19.6454 81.0816 21.032C80.2282 22.4187 79.0762 23.464 77.6256 24.168C76.1962 24.872 74.5962 25.224 72.8256 25.224C71.0549 25.224 69.4656 24.8827 68.0576 24.2C66.6709 23.496 65.5722 22.4507 64.7616 21.064C63.9509 19.656 63.5456 17.9494 63.5456 15.944V2.53604H69.0176Z" fill="#AB844D"/>
<path d="M105.98 25H100.508L91.3561 11.144V25H85.8841V2.53604H91.3561L100.508 16.456V2.53604H105.98V25Z" fill="#AB844D"/>
<path d="M115.099 6.92004V11.464H122.427V15.688H115.099V20.616H123.387V25H109.627V2.53604H123.387V6.92004H115.099Z" fill="#AB844D"/>
<path d="M134.427 25.224C132.784 25.224 131.312 24.9574 130.011 24.424C128.71 23.8907 127.664 23.1014 126.875 22.056C126.107 21.0107 125.702 19.752 125.659 18.28H131.483C131.568 19.112 131.856 19.752 132.347 20.2C132.838 20.6267 133.478 20.84 134.267 20.84C135.078 20.84 135.718 20.6587 136.187 20.296C136.656 19.912 136.891 19.3894 136.891 18.728C136.891 18.1734 136.699 17.7147 136.315 17.352C135.952 16.9894 135.494 16.6907 134.939 16.456C134.406 16.2214 133.638 15.9547 132.635 15.656C131.184 15.208 130 14.76 129.083 14.312C128.166 13.864 127.376 13.2027 126.715 12.328C126.054 11.4534 125.723 10.312 125.723 8.90404C125.723 6.81337 126.48 5.18137 127.995 4.00804C129.51 2.81337 131.483 2.21604 133.915 2.21604C136.39 2.21604 138.384 2.81337 139.899 4.00804C141.414 5.18137 142.224 6.82404 142.331 8.93604H136.411C136.368 8.2107 136.102 7.64537 135.611 7.24004C135.12 6.81337 134.491 6.60003 133.723 6.60003C133.062 6.60003 132.528 6.78137 132.123 7.14404C131.718 7.48537 131.515 7.9867 131.515 8.64804C131.515 9.37337 131.856 9.9387 132.539 10.344C133.222 10.7494 134.288 11.1867 135.739 11.656C137.19 12.1467 138.363 12.616 139.259 13.064C140.176 13.512 140.966 14.1627 141.627 15.016C142.288 15.8694 142.619 16.968 142.619 18.312C142.619 19.592 142.288 20.7547 141.627 21.8C140.987 22.8454 140.048 23.6774 138.811 24.296C137.574 24.9147 136.112 25.224 134.427 25.224Z" fill="#AB844D"/>
<path d="M144.419 13.736C144.419 11.5174 144.899 9.54404 145.859 7.81604C146.819 6.0667 148.152 4.71204 149.859 3.75204C151.587 2.7707 153.539 2.28004 155.715 2.28004C158.381 2.28004 160.664 2.98403 162.563 4.39203C164.461 5.80004 165.731 7.72004 166.371 10.152H160.355C159.907 9.21337 159.267 8.4987 158.435 8.00804C157.624 7.51737 156.696 7.27204 155.651 7.27204C153.965 7.27204 152.6 7.8587 151.555 9.03204C150.509 10.2054 149.987 11.7734 149.987 13.736C149.987 15.6987 150.509 17.2667 151.555 18.44C152.6 19.6134 153.965 20.2 155.651 20.2C156.696 20.2 157.624 19.9547 158.435 19.464C159.267 18.9734 159.907 18.2587 160.355 17.32H166.371C165.731 19.752 164.461 21.672 162.563 23.08C160.664 24.4667 158.381 25.16 155.715 25.16C153.539 25.16 151.587 24.68 149.859 23.72C148.152 22.7387 146.819 21.384 145.859 19.656C144.899 17.928 144.419 15.9547 144.419 13.736Z" fill="#AB844D"/>
<path d="M179.706 25.224C177.594 25.224 175.652 24.7334 173.882 23.752C172.132 22.7707 170.735 21.4054 169.69 19.656C168.666 17.8854 168.154 15.9014 168.154 13.704C168.154 11.5067 168.666 9.53337 169.69 7.78403C170.735 6.0347 172.132 4.66937 173.882 3.68804C175.652 2.7067 177.594 2.21604 179.706 2.21604C181.818 2.21604 183.748 2.7067 185.498 3.68804C187.268 4.66937 188.655 6.0347 189.658 7.78403C190.682 9.53337 191.194 11.5067 191.194 13.704C191.194 15.9014 190.682 17.8854 189.658 19.656C188.634 21.4054 187.247 22.7707 185.498 23.752C183.748 24.7334 181.818 25.224 179.706 25.224ZM179.706 20.232C181.498 20.232 182.927 19.6347 183.994 18.44C185.082 17.2454 185.626 15.6667 185.626 13.704C185.626 11.72 185.082 10.1414 183.994 8.96803C182.927 7.77337 181.498 7.17603 179.706 7.17603C177.892 7.17603 176.442 7.7627 175.354 8.93604C174.287 10.1094 173.754 11.6987 173.754 13.704C173.754 15.688 174.287 17.2774 175.354 18.472C176.442 19.6454 177.892 20.232 179.706 20.232Z" fill="#AB844D"/>
</svg>
