<svg width="46" height="49" viewBox="0 0 46 49" fill="none" xmlns="http://www.w3.org/2000/svg">
<path fill-rule="evenodd" clip-rule="evenodd" d="M2.61134 43.25C2.61134 42.8358 2.94713 42.5 3.36134 42.5H42.0735C42.4877 42.5 42.8235 42.8358 42.8235 43.25C42.8235 43.6642 42.4877 44 42.0735 44H3.36134C2.94713 44 2.61134 43.6642 2.61134 43.25Z" fill="#202123"/>
<path fill-rule="evenodd" clip-rule="evenodd" d="M22.8757 6.1123C23.1226 5.95942 23.4357 5.96288 23.6792 6.12117L33.4376 12.4641C34.5061 13.1586 34.7638 14.6124 33.9991 15.6319C33.5882 16.1798 32.9631 16.4881 32.3159 16.5115V19.6012L43.3354 26.3088C44.4292 26.9745 44.7803 28.3984 44.1215 29.4963C43.6085 30.3514 42.6376 30.7547 41.7174 30.5918V43.25C41.7174 43.6642 41.3816 44 40.9674 44H31.5659C31.1517 44 30.8159 43.6642 30.8159 43.25V16.0231L23.2704 11.4959L15.725 16.0231V43.25C15.725 43.6642 15.3892 44 14.975 44H4.4674C4.05319 44 3.7174 43.6642 3.7174 43.25V30.6013C2.80422 30.7687 1.83777 30.3705 1.32832 29.5214C0.660621 28.4086 1.04481 26.964 2.17713 26.3299L14.225 19.5831V16.7641C13.3034 16.926 12.3315 16.5217 11.8177 15.6653C11.1608 14.5705 11.5052 13.1511 12.5908 12.4791L22.8757 6.1123ZM13.104 14.8936C13.3491 15.3022 13.8861 15.423 14.2826 15.1587L14.559 14.9744C14.5689 14.9678 14.5789 14.9615 14.5891 14.9554L22.8846 9.97809C23.1221 9.83559 23.4188 9.83559 23.6563 9.97809L31.9269 14.9405C32.2298 15.0898 32.5963 15.0023 32.7992 14.7319C33.043 14.4068 32.9608 13.9432 32.6201 13.7218L23.2606 7.63814L13.3803 13.7545C12.9923 13.9948 12.8691 14.5022 13.104 14.8936ZM14.225 21.3023L2.91003 27.6387C2.51587 27.8594 2.38213 28.3623 2.61456 28.7496C2.84985 29.1418 3.36517 29.2577 3.74569 29.004L4.05138 28.8002C4.07292 28.7858 4.09519 28.7726 4.11809 28.7606L14.225 23.4411V21.3023ZM14.225 25.1362L5.2174 29.877V42.5H14.225V25.1362ZM40.2174 29.8532L32.3159 25.2053V42.5H40.2174V29.8532ZM32.3159 23.465L41.3477 28.7778C41.3598 28.7849 41.3717 28.7924 41.3834 28.8002L41.6648 28.9878C42.0585 29.2503 42.5918 29.1304 42.8353 28.7246C43.0698 28.3338 42.9448 27.827 42.5555 27.5901L32.3159 21.3573V23.465Z" fill="#202123"/>
<path fill-rule="evenodd" clip-rule="evenodd" d="M23.2704 23.5C24.8854 23.5 26.1947 22.1908 26.1947 20.5758C26.1947 18.9607 24.8854 17.6515 23.2704 17.6515C21.6554 17.6515 20.3462 18.9607 20.3462 20.5758C20.3462 22.1908 21.6554 23.5 23.2704 23.5ZM23.2704 25C25.7139 25 27.6947 23.0192 27.6947 20.5758C27.6947 18.1323 25.7139 16.1515 23.2704 16.1515C20.827 16.1515 18.8462 18.1323 18.8462 20.5758C18.8462 23.0192 20.827 25 23.2704 25Z" fill="#202123"/>
<path fill-rule="evenodd" clip-rule="evenodd" d="M23.2704 29.6212C21.2412 29.6212 19.5962 31.2662 19.5962 33.2955V43.25C19.5962 43.6642 19.2604 44 18.8462 44C18.432 44 18.0962 43.6642 18.0962 43.25V33.2955C18.0962 30.4378 20.4128 28.1212 23.2704 28.1212C26.1281 28.1212 28.4447 30.4378 28.4447 33.2955V43.25C28.4447 43.6642 28.1089 44 27.6947 44C27.2805 44 26.9447 43.6642 26.9447 43.25V33.2955C26.9447 31.2662 25.2997 29.6212 23.2704 29.6212Z" fill="#202123"/>
<path fill-rule="evenodd" clip-rule="evenodd" d="M9.72106 32.3864C9.06627 32.3864 8.53545 32.9172 8.53545 33.572V36.9697H10.9067V33.572C10.9067 32.9172 10.3758 32.3864 9.72106 32.3864ZM9.72106 30.8864C11.2043 30.8864 12.4067 32.0887 12.4067 33.572V37.7197C12.4067 38.1339 12.0709 38.4697 11.6567 38.4697H7.78545C7.37124 38.4697 7.03545 38.1339 7.03545 37.7197V33.572C7.03545 32.0887 8.23784 30.8864 9.72106 30.8864Z" fill="#202123"/>
<path fill-rule="evenodd" clip-rule="evenodd" d="M36.0848 32.3864C35.43 32.3864 34.8992 32.9172 34.8992 33.572V36.9697H37.2704V33.572C37.2704 32.9172 36.7396 32.3864 36.0848 32.3864ZM36.0848 30.8864C37.568 30.8864 38.7704 32.0887 38.7704 33.572V37.7197C38.7704 38.1339 38.4346 38.4697 38.0204 38.4697H34.1492C33.735 38.4697 33.3992 38.1339 33.3992 37.7197V33.572C33.3992 32.0887 34.6016 30.8864 36.0848 30.8864Z" fill="#202123"/>
</svg>
