<svg width="47" height="50" viewBox="0 0 47 50" fill="none" xmlns="http://www.w3.org/2000/svg">
<path fill-rule="evenodd" clip-rule="evenodd" d="M10.3807 39.667C10.4662 39.701 10.5595 39.7196 10.6572 39.7196C11.0714 39.7196 11.4072 39.3838 11.4072 38.9696V34.8219C11.4072 33.3387 10.2048 32.1363 8.72155 32.1363C7.23833 32.1363 6.03594 33.3387 6.03594 34.8219V35.6515C6.03594 37.8983 7.85731 39.7196 10.1041 39.7197C10.2018 39.7197 10.2951 39.701 10.3807 39.667ZM8.72155 33.6363C8.06675 33.6363 7.53594 34.1671 7.53594 34.8219V35.6515C7.53594 37.0036 8.58081 38.1116 9.90715 38.2122V34.8219C9.90715 34.1671 9.37634 33.6363 8.72155 33.6363Z" fill="#202123"/>
<path fill-rule="evenodd" clip-rule="evenodd" d="M30.205 0.77852C30.6035 0.891759 30.8347 1.30655 30.7214 1.70499L29.3252 6.61754C29.601 6.46585 29.8887 6.33633 30.1864 6.23067C32.3452 5.46462 34.8874 6.00072 37.0038 8.17208C38.9311 7.76776 40.5238 7.96305 41.7284 8.6439C43.0327 9.38114 43.7727 10.627 43.9908 12.008C44.2011 13.3398 43.9339 14.8096 43.2247 16.1551C44.5915 16.9207 45.4562 17.8875 45.8847 18.9751C46.3757 20.2215 46.2488 21.5126 45.8267 22.6383C45.4059 23.7603 44.6773 24.7635 43.8801 25.4914C43.3136 26.0086 42.6454 26.4463 41.9718 26.6413C41.7318 29.3754 39.9559 31.0702 37.7847 31.5452C37.0562 31.7045 36.2884 31.7258 35.5262 31.6085C35.6084 35.2834 35.8787 37.4992 36.3203 39.195C36.7481 40.8373 37.3401 42.015 38.1495 43.6251L38.2123 43.75H43.7494C44.1636 43.75 44.4994 44.0858 44.4994 44.5C44.4994 44.9142 44.1636 45.25 43.7494 45.25H18.3455L17.2214 49.205C17.1082 49.6034 16.6934 49.8346 16.295 49.7214C15.8965 49.6081 15.6653 49.1933 15.7786 48.7949L16.7861 45.2499H2.36114C1.94692 45.2499 1.61114 44.9142 1.61114 44.4999C1.61114 44.0857 1.94692 43.7499 2.36114 43.7499H2.7174V31.8513C1.80422 32.0187 0.837772 31.6204 0.32832 30.7713C-0.339379 29.6585 0.0448112 28.214 1.17713 27.5799L13.225 20.8331V18.0141C12.3034 18.176 11.3315 17.7716 10.8177 16.9153C10.1608 15.8205 10.5052 14.4011 11.5908 13.7291L21.8757 7.36225C22.1226 7.20937 22.4356 7.21283 22.6792 7.37112L26.7919 10.0444L29.2786 1.29491C29.3918 0.896477 29.8066 0.66528 30.205 0.77852ZM18.7718 43.75H28.7865L28.8485 43.6267C29.7163 41.9005 30.337 40.6659 30.7693 38.8282C31.2284 36.8772 31.4777 34.2235 31.498 29.6237C29.8971 30.674 28.2111 30.8495 26.7025 30.4072C25.3064 29.9979 24.1041 29.0729 23.2733 27.9115L18.7718 43.75ZM23.8564 25.8599C23.9267 26.0435 24.0087 26.2248 24.1016 26.4026C24.7369 27.6179 25.8494 28.5939 27.1245 28.9678C28.3669 29.3321 29.826 29.1451 31.265 27.9275C31.4227 27.794 31.6284 27.7316 31.8337 27.7548C32.0389 27.7779 32.2256 27.8848 32.3495 28.05C33.6729 29.8146 35.7505 30.4547 37.4641 30.0798C39.1279 29.7159 40.4994 28.3893 40.4994 26C40.4994 25.5858 40.8352 25.25 41.2494 25.25C41.5956 25.25 42.2009 24.9934 42.8687 24.3836C43.509 23.799 44.0929 22.9897 44.4222 22.1117C44.75 21.2374 44.8106 20.341 44.4891 19.5249C44.2053 18.8044 43.5879 18.0557 42.3991 17.4127C41.682 18.3079 40.7396 19.0936 39.5854 19.6708C39.2149 19.856 38.7644 19.7058 38.5791 19.3354C38.3939 18.9649 38.5441 18.5144 38.9145 18.3291C41.6483 16.9623 42.8287 14.2661 42.5091 12.2419C42.3522 11.2479 41.8422 10.4313 40.9903 9.94975C40.1283 9.46251 38.808 9.25852 36.9319 9.72756C36.661 9.79527 36.3749 9.70693 36.1894 9.49826C34.363 7.44382 32.2988 7.07273 30.6881 7.64431C29.8832 7.92992 29.153 8.46365 28.5918 9.19803L25.7984 19.0267C26.4659 18.7191 27.2264 18.4634 28.0833 18.2687C28.4872 18.1769 28.889 18.4299 28.9808 18.8338C29.0726 19.2377 28.8196 19.6396 28.4157 19.7314C26.9934 20.0546 25.9513 20.543 25.2061 21.1108L23.8564 25.8599ZM20.7836 31.1846L18.5965 38.88V34.5454C18.5965 33.0455 19.4953 31.7555 20.7836 31.1846ZM21.9753 26.9916L21.2716 29.4675C18.8921 29.9331 17.0965 32.0295 17.0965 34.5454V43.7499H14.725V17.2731L22.2704 12.7458L25.4773 14.6699L24.7367 17.2757C24.0036 16.8776 23.1636 16.6514 22.2707 16.6514C19.4131 16.6514 17.0965 18.968 17.0965 21.8257C17.0965 24.5842 19.2551 26.8385 21.9753 26.9916ZM26.3627 11.5544L25.902 13.1755L22.6563 11.228C22.4188 11.0855 22.1221 11.0855 21.8846 11.228L13.5891 16.2053C13.5789 16.2114 13.5689 16.2178 13.559 16.2244L13.2826 16.4086C12.8861 16.6729 12.3491 16.5522 12.104 16.1436C11.8691 15.7522 11.9923 15.2447 12.3804 15.0045L22.2606 8.88809L26.3627 11.5544ZM22.2707 18.1514C23.026 18.1514 23.7281 18.3793 24.3119 18.7701L22.3999 25.4977C22.357 25.4992 22.314 25.4999 22.2707 25.4999C20.2415 25.4999 18.5965 23.8549 18.5965 21.8257C18.5965 19.7965 20.2415 18.1514 22.2707 18.1514ZM13.225 43.7499V26.3862L4.2174 31.127V43.7499H13.225ZM13.225 24.6911V22.5523L1.91003 28.8886C1.51587 29.1094 1.38213 29.6122 1.61456 29.9996C1.84985 30.3917 2.36517 30.5076 2.74569 30.2539L3.05138 30.0502C3.07292 30.0358 3.09519 30.0226 3.11809 30.0105L13.225 24.6911ZM34.0175 31.1869C33.665 31.0416 33.3207 30.8643 32.9894 30.655C32.9382 34.6834 32.69 37.2146 32.2295 39.1718C31.8055 40.9737 31.2035 42.2721 30.4652 43.75H36.5336C35.8517 42.3849 35.2846 41.1697 34.8687 39.5731C34.3655 37.6409 34.088 35.1769 34.0175 31.1869Z" fill="#202123"/>
</svg>
