<svg width="46" height="49" viewBox="0 0 46 49" fill="none" xmlns="http://www.w3.org/2000/svg">
<path fill-rule="evenodd" clip-rule="evenodd" d="M38.7224 25.8913C39.396 25.6963 40.0642 25.2586 40.6307 24.7414C41.4279 24.0135 42.1565 23.0103 42.5772 21.8883C42.9994 20.7626 43.1263 19.4715 42.6353 18.2251C42.1415 16.9715 41.0681 15.8785 39.3143 15.069L38.6857 16.431C40.1819 17.1215 40.921 17.966 41.2397 18.7749C41.5612 19.591 41.5006 20.4874 41.1728 21.3617C40.8435 22.2397 40.2596 23.049 39.6193 23.6336C38.9515 24.2434 38.3462 24.5 38 24.5C37.5858 24.5 37.25 24.8358 37.25 25.25C37.25 27.6393 35.8785 28.9659 34.2147 29.3298C32.5011 29.7047 30.4235 29.0645 29.1001 27.3C28.9762 27.1348 28.7895 27.0279 28.5843 27.0047C28.379 26.9815 28.1733 27.044 28.0156 27.1775C26.5766 28.3951 25.1175 28.5821 23.8751 28.2178C22.6 27.8439 21.4875 26.8679 20.8522 25.6526C20.2191 24.4414 20.0964 23.0697 20.6674 21.8891C21.2342 20.7173 22.5637 19.5728 25.1663 18.9813C25.5702 18.8896 25.8232 18.4877 25.7314 18.0838C25.6396 17.6799 25.2378 17.4269 24.8339 17.5187C21.9364 18.1772 20.1409 19.5327 19.3171 21.2359C18.4975 22.9303 18.7185 24.8086 19.5229 26.3474C20.3251 27.8821 21.7439 29.1561 23.4531 29.6572C25.005 30.1122 26.7446 29.9134 28.3862 28.7812C30.0643 30.5819 32.459 31.2494 34.5353 30.7952C36.7065 30.3202 38.4823 28.6254 38.7224 25.8913Z" fill="#202123"/>
<path fill-rule="evenodd" clip-rule="evenodd" d="M33.7544 7.42207C31.638 5.25072 29.0958 4.71461 26.937 5.48067C24.9363 6.19062 23.3882 7.97849 22.8867 10.3254C20.6786 10.0235 18.5437 11.6133 17.5755 13.6103C17.0086 14.7796 16.7861 16.1658 17.1499 17.5569C17.5156 18.9556 18.4552 20.2878 20.0845 21.374L20.9166 20.1259C19.5459 19.2122 18.8604 18.1693 18.6011 17.1774C18.3397 16.1779 18.4922 15.1578 18.9252 14.2647C19.8289 12.4007 21.737 11.3897 23.2372 11.9522C23.4552 12.034 23.6988 12.0098 23.8965 11.8869C24.0942 11.764 24.2237 11.5563 24.2468 11.3246C24.4707 9.08623 25.7997 7.47589 27.4387 6.8943C29.0494 6.32273 31.1136 6.69381 32.94 8.74826C33.1255 8.95692 33.4116 9.04527 33.6825 8.97755C35.5586 8.50851 36.8789 8.71251 37.7409 9.19974C38.5928 9.68125 39.1028 10.4979 39.2597 11.4919C39.5793 13.5161 38.3989 16.2123 35.6651 17.5791C35.2947 17.7644 35.1445 18.2149 35.3297 18.5854C35.515 18.9558 35.9655 19.106 36.336 18.9208C39.6022 17.2876 41.1718 13.9838 40.7414 11.258C40.5233 9.87701 39.7833 8.63113 38.479 7.8939C37.2744 7.21304 35.6817 7.01775 33.7544 7.42207Z" fill="#202123"/>
<path fill-rule="evenodd" clip-rule="evenodd" d="M4.75 43.75C4.75 43.3358 5.08579 43 5.5 43H40.5C40.9142 43 41.25 43.3358 41.25 43.75C41.25 44.1642 40.9142 44.5 40.5 44.5H5.5C5.08579 44.5 4.75 44.1642 4.75 43.75Z" fill="#202123"/>
<path fill-rule="evenodd" clip-rule="evenodd" d="M26.9457 43.538C26.8558 43.7166 26.7642 43.8987 26.6708 44.0854L25.3292 43.4146C25.4217 43.2295 25.5117 43.0506 25.5991 42.8767C26.4669 41.1505 27.0876 39.9158 27.5199 38.0782C27.9994 36.0407 28.25 33.2367 28.25 28.25H29.75C29.75 33.2633 29.5006 36.2093 28.9801 38.4218C28.5055 40.4388 27.8079 41.8248 26.9457 43.538Z" fill="#202123"/>
<path fill-rule="evenodd" clip-rule="evenodd" d="M33.555 43.5394C33.6447 43.7176 33.7361 43.8992 33.8292 44.0854L35.1708 43.4146C35.078 43.229 34.9878 43.0495 34.9002 42.8752C34.0907 41.265 33.4987 40.0874 33.0709 38.445C32.5956 36.6199 32.3188 34.1923 32.2613 29.9917L30.7614 30.0122C30.8195 34.2537 31.0985 36.8232 31.6194 38.8231C32.0891 40.6266 32.7518 41.9435 33.555 43.5394Z" fill="#202123"/>
<path fill-rule="evenodd" clip-rule="evenodd" d="M14.5 10C10.4959 10 7.25 13.2459 7.25 17.25C7.25 21.2541 10.4959 24.5 14.5 24.5C16.3392 24.5 18.0168 23.8161 19.2953 22.6877L20.2879 23.8123C18.7459 25.1733 16.7186 26 14.5 26C9.66751 26 5.75 22.0825 5.75 17.25C5.75 12.4175 9.66751 8.5 14.5 8.5C17.0023 8.5 19.2602 9.55134 20.8541 11.2343L19.7649 12.2657C18.4426 10.8694 16.5734 10 14.5 10Z" fill="#202123"/>
<path fill-rule="evenodd" clip-rule="evenodd" d="M2 17.5C2 17.0858 2.33579 16.75 2.75 16.75H4.75C5.16421 16.75 5.5 17.0858 5.5 17.5C5.5 17.9142 5.16421 18.25 4.75 18.25H2.75C2.33579 18.25 2 17.9142 2 17.5Z" fill="#202123"/>
<path fill-rule="evenodd" clip-rule="evenodd" d="M14.5 5C14.9142 5 15.25 5.33579 15.25 5.75V7.75C15.25 8.16421 14.9142 8.5 14.5 8.5C14.0858 8.5 13.75 8.16421 13.75 7.75V5.75C13.75 5.33579 14.0858 5 14.5 5Z" fill="#202123"/>
<path fill-rule="evenodd" clip-rule="evenodd" d="M5.66108 8.6612C5.95397 8.3683 6.42884 8.3683 6.72174 8.6612L8.13595 10.0754C8.42884 10.3683 8.42884 10.8432 8.13595 11.1361C7.84306 11.429 7.36818 11.429 7.07529 11.1361L5.66108 9.72186C5.36818 9.42897 5.36818 8.95409 5.66108 8.6612Z" fill="#202123"/>
<path fill-rule="evenodd" clip-rule="evenodd" d="M5.66108 26.3389C5.36818 26.046 5.36818 25.5712 5.66108 25.2783L7.07529 23.864C7.36818 23.5712 7.84306 23.5712 8.13595 23.864C8.42884 24.1569 8.42884 24.6318 8.13595 24.9247L6.72174 26.3389C6.42884 26.6318 5.95397 26.6318 5.66108 26.3389Z" fill="#202123"/>
<path fill-rule="evenodd" clip-rule="evenodd" d="M14.5 26.5C14.9142 26.5 15.25 26.8358 15.25 27.25V29.25C15.25 29.6642 14.9142 30 14.5 30C14.0858 30 13.75 29.6642 13.75 29.25V27.25C13.75 26.8358 14.0858 26.5 14.5 26.5Z" fill="#202123"/>
</svg>
