<svg width="28" height="38" viewBox="0 0 28 38" fill="none" xmlns="http://www.w3.org/2000/svg">
<path d="M12.5612 37.2333C1.96656 21.6 0 19.9955 0 14.25C0 6.37992 6.26799 0 14 0C21.732 0 28 6.37992 28 14.25C28 19.9955 26.0334 21.6 15.4388 37.2333C14.7435 38.2556 13.2564 38.2555 12.5612 37.2333ZM14 20.1875C17.2217 20.1875 19.8333 17.5292 19.8333 14.25C19.8333 10.9708 17.2217 8.3125 14 8.3125C10.7783 8.3125 8.16667 10.9708 8.16667 14.25C8.16667 17.5292 10.7783 20.1875 14 20.1875Z" fill="#0094D9"/>
<path d="M12.9749 36.9526C11.0734 34.1466 9.453 31.7971 8.07337 29.7966C5.59796 26.2073 3.89753 23.7417 2.73809 21.7794C1.84147 20.2619 1.28672 19.0742 0.95291 17.9269C0.62016 16.7832 0.5 15.6557 0.5 14.25C0.5 6.64768 6.55244 0.5 14 0.5C21.4476 0.5 27.5 6.64768 27.5 14.25C27.5 15.6557 27.3798 16.7832 27.0471 17.9269C26.7133 19.0742 26.1585 20.2619 25.2619 21.7794C24.1025 23.7417 22.402 26.2073 19.9266 29.7966C18.5471 31.797 16.9268 34.1464 15.0253 36.9521C14.5286 37.6825 13.4718 37.6826 12.9749 36.9526ZM14 20.6875C17.5061 20.6875 20.3333 17.797 20.3333 14.25C20.3333 10.703 17.5061 7.8125 14 7.8125C10.4939 7.8125 7.66667 10.703 7.66667 14.25C7.66667 17.797 10.4939 20.6875 14 20.6875Z" stroke="white" stroke-opacity="1"/>
</svg>