<svg width="228" height="28" viewBox="0 0 228 28" fill="none" xmlns="http://www.w3.org/2000/svg">
<path d="M0.121948 15.0319C0.121948 12.6746 0.631948 10.5779 1.65195 8.74195C2.67195 6.88328 4.08861 5.44395 5.90195 4.42395C7.73795 3.38128 9.81195 2.85995 12.1239 2.85995C14.9573 2.85995 17.3826 3.60795 19.3999 5.10395C21.4173 6.59995 22.7659 8.63995 23.4459 11.2239H17.0539C16.578 10.2266 15.8979 9.46728 15.0139 8.94595C14.1526 8.42461 13.1666 8.16395 12.0559 8.16395C10.2653 8.16395 8.81462 8.78728 7.70395 10.0339C6.59328 11.2806 6.03795 12.9466 6.03795 15.0319C6.03795 17.1173 6.59328 18.7833 7.70395 20.0299C8.81462 21.2766 10.2653 21.8999 12.0559 21.8999C13.1666 21.8999 14.1526 21.6393 15.0139 21.1179C15.8979 20.5966 16.578 19.8373 17.0539 18.8399H23.4459C22.7659 21.4239 21.4173 23.4639 19.3999 24.9599C17.3826 26.4333 14.9573 27.1699 12.1239 27.1699C9.81195 27.1699 7.73795 26.6599 5.90195 25.6399C4.08861 24.5973 2.67195 23.1579 1.65195 21.3219C0.631948 19.4859 0.121948 17.3893 0.121948 15.0319Z" fill="white"/>
<path d="M34.6224 27.2719C32.7637 27.2719 31.0864 26.8753 29.5904 26.0819C28.1171 25.2886 26.9497 24.1553 26.0884 22.6819C25.2497 21.2086 24.8304 19.4859 24.8304 17.5139C24.8304 15.5646 25.2611 13.8533 26.1224 12.3799C26.9837 10.8839 28.1624 9.73928 29.6584 8.94595C31.1544 8.15261 32.8317 7.75595 34.6904 7.75595C36.5491 7.75595 38.2264 8.15261 39.7224 8.94595C41.2184 9.73928 42.3971 10.8839 43.2584 12.3799C44.1197 13.8533 44.5504 15.5646 44.5504 17.5139C44.5504 19.4633 44.1084 21.1859 43.2244 22.6819C42.3631 24.1553 41.1731 25.2886 39.6544 26.0819C38.1584 26.8753 36.4811 27.2719 34.6224 27.2719ZM34.6224 22.2399C35.7331 22.2399 36.6737 21.8319 37.4444 21.0159C38.2377 20.1999 38.6344 19.0326 38.6344 17.5139C38.6344 15.9953 38.2491 14.8279 37.4784 14.0119C36.7304 13.1959 35.8011 12.7879 34.6904 12.7879C33.5571 12.7879 32.6164 13.1959 31.8684 14.0119C31.1204 14.8053 30.7464 15.9726 30.7464 17.5139C30.7464 19.0326 31.1091 20.1999 31.8344 21.0159C32.5824 21.8319 33.5117 22.2399 34.6224 22.2399Z" fill="white"/>
<path d="M54.3328 27.2719C52.6782 27.2719 51.2048 26.9886 49.9128 26.4219C48.6208 25.8553 47.6008 25.0846 46.8528 24.1099C46.1048 23.1126 45.6855 22.0019 45.5948 20.7779H51.3408C51.4088 21.4353 51.7148 21.9679 52.2588 22.3759C52.8028 22.7839 53.4715 22.9879 54.2648 22.9879C54.9902 22.9879 55.5455 22.8519 55.9308 22.5799C56.3388 22.2853 56.5428 21.9113 56.5428 21.4579C56.5428 20.9139 56.2595 20.5173 55.6928 20.2679C55.1262 19.9959 54.2082 19.7013 52.9388 19.3839C51.5788 19.0666 50.4455 18.7379 49.5388 18.3979C48.6322 18.0353 47.8502 17.4799 47.1928 16.7319C46.5355 15.9613 46.2068 14.9299 46.2068 13.6379C46.2068 12.5499 46.5015 11.5639 47.0908 10.6799C47.7028 9.77328 48.5868 9.05928 49.7428 8.53795C50.9215 8.01661 52.3155 7.75595 53.9248 7.75595C56.3048 7.75595 58.1748 8.34528 59.5348 9.52395C60.9175 10.7026 61.7108 12.2666 61.9148 14.2159H56.5428C56.4522 13.5586 56.1575 13.0373 55.6588 12.6519C55.1828 12.2666 54.5482 12.0739 53.7548 12.0739C53.0748 12.0739 52.5535 12.2099 52.1908 12.4819C51.8282 12.7313 51.6468 13.0826 51.6468 13.5359C51.6468 14.0799 51.9302 14.4879 52.4968 14.7599C53.0862 15.0319 53.9928 15.3039 55.2168 15.5759C56.6222 15.9386 57.7668 16.3013 58.6508 16.6639C59.5348 17.0039 60.3055 17.5706 60.9628 18.3639C61.6428 19.1346 61.9942 20.1773 62.0168 21.4919C62.0168 22.6026 61.6995 23.5999 61.0648 24.4839C60.4528 25.3453 59.5575 26.0253 58.3788 26.5239C57.2228 27.0226 55.8742 27.2719 54.3328 27.2719Z" fill="white"/>
<path d="M88.7618 7.82395C91.1191 7.82395 92.9891 8.53795 94.3718 9.96595C95.7771 11.3939 96.4798 13.3773 96.4798 15.9159V26.9999H90.6998V16.6979C90.6998 15.4739 90.3711 14.5333 89.7138 13.8759C89.0791 13.1959 88.1951 12.8559 87.0618 12.8559C85.9285 12.8559 85.0331 13.1959 84.3758 13.8759C83.7411 14.5333 83.4238 15.4739 83.4238 16.6979V26.9999H77.6438V16.6979C77.6438 15.4739 77.3151 14.5333 76.6578 13.8759C76.0231 13.1959 75.1391 12.8559 74.0058 12.8559C72.8725 12.8559 71.9771 13.1959 71.3198 13.8759C70.6851 14.5333 70.3678 15.4739 70.3678 16.6979V26.9999H64.5538V8.02795H70.3678V10.4079C70.9571 9.61461 71.7278 8.99128 72.6798 8.53795C73.6318 8.06195 74.7085 7.82395 75.9098 7.82395C77.3378 7.82395 78.6071 8.12995 79.7178 8.74195C80.8511 9.35395 81.7351 10.2266 82.3698 11.3599C83.0271 10.3173 83.9225 9.46728 85.0558 8.80995C86.1891 8.15261 87.4245 7.82395 88.7618 7.82395Z" fill="white"/>
<path d="M108.162 27.2719C106.303 27.2719 104.626 26.8753 103.13 26.0819C101.657 25.2886 100.489 24.1553 99.628 22.6819C98.7893 21.2086 98.37 19.4859 98.37 17.5139C98.37 15.5646 98.8007 13.8533 99.662 12.3799C100.523 10.8839 101.702 9.73928 103.198 8.94595C104.694 8.15261 106.371 7.75595 108.23 7.75595C110.089 7.75595 111.766 8.15261 113.262 8.94595C114.758 9.73928 115.937 10.8839 116.798 12.3799C117.659 13.8533 118.09 15.5646 118.09 17.5139C118.09 19.4633 117.648 21.1859 116.764 22.6819C115.903 24.1553 114.713 25.2886 113.194 26.0819C111.698 26.8753 110.021 27.2719 108.162 27.2719ZM108.162 22.2399C109.273 22.2399 110.213 21.8319 110.984 21.0159C111.777 20.1999 112.174 19.0326 112.174 17.5139C112.174 15.9953 111.789 14.8279 111.018 14.0119C110.27 13.1959 109.341 12.7879 108.23 12.7879C107.097 12.7879 106.156 13.1959 105.408 14.0119C104.66 14.8053 104.286 15.9726 104.286 17.5139C104.286 19.0326 104.649 20.1999 105.374 21.0159C106.122 21.8319 107.051 22.2399 108.162 22.2399Z" fill="white"/>
<path d="M123.258 15.1339C123.258 12.8219 123.791 10.7479 124.856 8.91195C125.944 7.07595 127.406 5.64795 129.242 4.62795C131.101 3.58528 133.129 3.06395 135.328 3.06395C137.844 3.06395 140.077 3.68728 142.026 4.93395C143.998 6.15795 145.426 7.90328 146.31 10.1699H141.652C141.04 8.92328 140.19 7.99395 139.102 7.38195C138.014 6.76995 136.756 6.46395 135.328 6.46395C133.764 6.46395 132.37 6.81528 131.146 7.51795C129.922 8.22061 128.959 9.22928 128.256 10.5439C127.576 11.8586 127.236 13.3886 127.236 15.1339C127.236 16.8793 127.576 18.4093 128.256 19.7239C128.959 21.0386 129.922 22.0586 131.146 22.7839C132.37 23.4866 133.764 23.8379 135.328 23.8379C136.756 23.8379 138.014 23.5319 139.102 22.9199C140.19 22.3079 141.04 21.3786 141.652 20.1319H146.31C145.426 22.3986 143.998 24.1439 142.026 25.3679C140.077 26.5919 137.844 27.2039 135.328 27.2039C133.107 27.2039 131.078 26.6939 129.242 25.6739C127.406 24.6313 125.944 23.1919 124.856 21.3559C123.791 19.5199 123.258 17.4459 123.258 15.1339Z" fill="#CBA97A"/>
<path d="M157.953 27.3059C156.185 27.3059 154.587 26.9093 153.159 26.1159C151.731 25.2999 150.609 24.1666 149.793 22.7159C148.977 21.2426 148.569 19.5426 148.569 17.6159C148.569 15.7119 148.988 14.0233 149.827 12.5499C150.665 11.0766 151.81 9.94328 153.261 9.14995C154.711 8.35661 156.332 7.95995 158.123 7.95995C159.913 7.95995 161.534 8.35661 162.985 9.14995C164.435 9.94328 165.58 11.0766 166.419 12.5499C167.257 14.0233 167.677 15.7119 167.677 17.6159C167.677 19.5199 167.246 21.2086 166.385 22.6819C165.523 24.1553 164.345 25.2999 162.849 26.1159C161.375 26.9093 159.743 27.3059 157.953 27.3059ZM157.953 23.9399C158.95 23.9399 159.879 23.7019 160.741 23.2259C161.625 22.7499 162.339 22.0359 162.883 21.0839C163.427 20.1319 163.699 18.9759 163.699 17.6159C163.699 16.2559 163.438 15.1113 162.917 14.1819C162.395 13.2299 161.704 12.5159 160.843 12.0399C159.981 11.5639 159.052 11.3259 158.055 11.3259C157.057 11.3259 156.128 11.5639 155.267 12.0399C154.428 12.5159 153.759 13.2299 153.261 14.1819C152.762 15.1113 152.513 16.2559 152.513 17.6159C152.513 19.6333 153.023 21.1973 154.043 22.3079C155.085 23.3959 156.389 23.9399 157.953 23.9399Z" fill="#CBA97A"/>
<path d="M173.922 23.8379H182.422V26.9999H169.434V23.8379L177.968 11.4279H169.434V8.26595H182.422V11.4279L173.922 23.8379Z" fill="#CBA97A"/>
<path d="M187.444 5.78395C186.742 5.78395 186.152 5.54595 185.676 5.06995C185.2 4.59395 184.962 4.00461 184.962 3.30195C184.962 2.59928 185.2 2.00995 185.676 1.53395C186.152 1.05795 186.742 0.819946 187.444 0.819946C188.124 0.819946 188.702 1.05795 189.178 1.53395C189.654 2.00995 189.892 2.59928 189.892 3.30195C189.892 4.00461 189.654 4.59395 189.178 5.06995C188.702 5.54595 188.124 5.78395 187.444 5.78395ZM189.348 8.26595V26.9999H185.472V8.26595H189.348Z" fill="#CBA97A"/>
<path d="M210.587 17.1739C210.587 17.8766 210.542 18.5113 210.451 19.0779H196.137C196.251 20.5739 196.806 21.7753 197.803 22.6819C198.801 23.5886 200.025 24.0419 201.475 24.0419C203.561 24.0419 205.034 23.1693 205.895 21.4239H210.077C209.511 23.1466 208.479 24.5633 206.983 25.6739C205.51 26.7619 203.674 27.3059 201.475 27.3059C199.685 27.3059 198.075 26.9093 196.647 26.1159C195.242 25.2999 194.131 24.1666 193.315 22.7159C192.522 21.2426 192.125 19.5426 192.125 17.6159C192.125 15.6893 192.511 14.0006 193.281 12.5499C194.075 11.0766 195.174 9.94328 196.579 9.14995C198.007 8.35661 199.639 7.95995 201.475 7.95995C203.243 7.95995 204.819 8.34528 206.201 9.11595C207.584 9.88661 208.661 10.9746 209.431 12.3799C210.202 13.7626 210.587 15.3606 210.587 17.1739ZM206.541 15.9499C206.519 14.5219 206.009 13.3773 205.011 12.5159C204.014 11.6546 202.779 11.2239 201.305 11.2239C199.968 11.2239 198.823 11.6546 197.871 12.5159C196.919 13.3546 196.353 14.4993 196.171 15.9499H206.541Z" fill="#CBA97A"/>
<path d="M220.182 27.3059C218.708 27.3059 217.382 27.0453 216.204 26.5239C215.048 25.9799 214.13 25.2546 213.45 24.3479C212.77 23.4186 212.407 22.3873 212.362 21.2539H216.374C216.442 22.0473 216.816 22.7159 217.496 23.2599C218.198 23.7813 219.071 24.0419 220.114 24.0419C221.202 24.0419 222.04 23.8379 222.63 23.4299C223.242 22.9993 223.548 22.4553 223.548 21.7979C223.548 21.0953 223.208 20.5739 222.528 20.2339C221.87 19.8939 220.816 19.5199 219.366 19.1119C217.96 18.7266 216.816 18.3526 215.932 17.9899C215.048 17.6273 214.277 17.0719 213.62 16.3239C212.985 15.5759 212.668 14.5899 212.668 13.3659C212.668 12.3686 212.962 11.4619 213.552 10.6459C214.141 9.80728 214.98 9.14995 216.068 8.67395C217.178 8.19795 218.448 7.95995 219.876 7.95995C222.006 7.95995 223.718 8.50395 225.01 9.59195C226.324 10.6573 227.027 12.1193 227.118 13.9779H223.242C223.174 13.1393 222.834 12.4706 222.222 11.9719C221.61 11.4733 220.782 11.2239 219.74 11.2239C218.72 11.2239 217.938 11.4166 217.394 11.8019C216.85 12.1873 216.578 12.6973 216.578 13.3319C216.578 13.8306 216.759 14.2499 217.122 14.5899C217.484 14.9299 217.926 15.2019 218.448 15.4059C218.969 15.5873 219.74 15.8253 220.76 16.1199C222.12 16.4826 223.23 16.8566 224.092 17.2419C224.976 17.6046 225.735 18.1486 226.37 18.8739C227.004 19.5993 227.333 20.5626 227.356 21.7639C227.356 22.8293 227.061 23.7813 226.472 24.6199C225.882 25.4586 225.044 26.1159 223.956 26.5919C222.89 27.0679 221.632 27.3059 220.182 27.3059Z" fill="#CBA97A"/>
</svg>
